<?xml version="1.0" encoding="utf-8"?>
<!-- Generator: Adobe Illustrator 16.0.0, SVG Export Plug-In . SVG Version: 6.00 Build 0)  -->
<!DOCTYPE svg PUBLIC "-//W3C//DTD SVG 1.1//EN" "http://www.w3.org/Graphics/SVG/1.1/DTD/svg11.dtd">
<svg version="1.1" id="Layer_1" xmlns="http://www.w3.org/2000/svg" xmlns:xlink="http://www.w3.org/1999/xlink" x="0px" y="0px"
	 width="204.744px" height="50.544px" viewBox="-873.253 766.815 204.744 50.544"
	 enable-background="new -873.253 766.815 204.744 50.544" xml:space="preserve">
<polygon fill="#FFFFFF" points="-883.28,727.275 -883.28,727.225 -883.291,727.225 "/>
<g>
	<polygon fill="none" points="-684.038,779.787 -685.957,779.792 -685.957,781.718 	"/>
	<polygon fill="none" points="-685.583,774.127 -685.447,776.228 -683.409,778.256 -683.417,775.382 -684.816,773.807 
		-684.146,773.212 -683.421,774.029 -683.426,772.172 -683.082,772.171 -683.082,766.815 -685.957,766.815 -685.957,774.151 	"/>
	<polygon fill="none" points="-684.04,778.889 -685.957,776.984 -685.957,778.896 	"/>
	<path fill="none" d="M-696.178,781.338c0.264-0.135,0.543-0.286,0.823-0.456c0.278-0.169,0.561-0.359,0.784-0.567
		c0.11-0.104,0.201-0.212,0.25-0.3c0.047-0.091,0.039-0.126,0.034-0.144c-0.006-0.019-0.038-0.089-0.123-0.178
		c-0.045-0.046-0.095-0.092-0.156-0.14c-0.029-0.022-0.058-0.047-0.088-0.068c-0.029-0.019-0.054-0.038-0.103-0.068
		c-0.295-0.192-0.605-0.338-0.867-0.397c-0.269-0.055-0.46-0.028-0.659,0.086c-0.199,0.118-0.392,0.343-0.542,0.599
		c-0.156,0.254-0.278,0.533-0.38,0.796c-0.205,0.535-0.331,1.019-0.417,1.356c-0.001,0.004-0.002,0.008-0.003,0.012v0.17
		c0.045-0.021,0.091-0.043,0.146-0.068C-697.163,781.818-696.705,781.608-696.178,781.338z"/>
	<polygon fill="none" points="-698.128,782.393 -698.145,782.501 -698.108,782.501 	"/>
	<path fill="none" d="M-699.04,780.5c-0.1-0.263-0.226-0.542-0.38-0.796c-0.152-0.256-0.344-0.48-0.543-0.599
		c-0.198-0.114-0.391-0.141-0.66-0.086c-0.263,0.059-0.572,0.204-0.867,0.397c-0.049,0.03-0.075,0.05-0.103,0.068
		c-0.029,0.021-0.059,0.046-0.089,0.068c-0.061,0.048-0.11,0.094-0.155,0.14c-0.086,0.088-0.119,0.157-0.125,0.178
		c-0.005,0.018-0.013,0.053,0.034,0.144c0.048,0.088,0.14,0.195,0.25,0.3c0.224,0.208,0.508,0.398,0.784,0.567
		c0.28,0.17,0.561,0.321,0.823,0.456c0.526,0.271,0.984,0.48,1.304,0.632c0.069,0.033,0.133,0.063,0.191,0.091
		c-0.016-0.062-0.031-0.13-0.05-0.204C-698.711,781.518-698.836,781.034-699.04,780.5z"/>
	<path fill="none" d="M-675.009,795.965c-0.074,0.148-0.219,0.252-0.383,0.274l-2.39,0.336l1.72,1.691
		c0.119,0.117,0.173,0.285,0.144,0.449l-0.42,2.376l2.142-1.11c0.147-0.077,0.324-0.076,0.473,0.002l2.13,1.134l-0.396-2.38
		c-0.027-0.164,0.026-0.332,0.146-0.448l1.737-1.676l-2.387-0.358c-0.165-0.024-0.308-0.13-0.382-0.278l-1.057-2.171
		L-675.009,795.965z"/>
	<path fill="#00AA97" d="M-674.066,766.815v25.38c0.048-0.016,0.093-0.041,0.146-0.041c0.038,0,0.069,0.022,0.104,0.03v-25.369
		H-674.066z"/>
	<path fill="#CFEA11" d="M-674.066,793.152v-0.957c-0.129,0.04-0.247,0.113-0.311,0.24l-1.418,2.838l-3.143,0.439
		c-0.19,0.027-0.351,0.159-0.411,0.342c-0.062,0.185-0.012,0.387,0.126,0.521l2.261,2.227l-0.553,3.125
		c-0.033,0.189,0.044,0.383,0.199,0.496c0.088,0.065,0.193,0.099,0.298,0.1c0.08,0,0.162-0.021,0.238-0.058l2.814-1.462l2.803,1.491
		c0.17,0.091,0.377,0.076,0.532-0.036c0.156-0.113,0.235-0.305,0.204-0.494l-0.521-3.131l2.283-2.203
		c0.139-0.134,0.188-0.335,0.131-0.519c-0.059-0.185-0.217-0.319-0.407-0.348l-3.138-0.473l-1.392-2.853
		c-0.067-0.14-0.2-0.221-0.348-0.255v0.968H-674.066z M-672.874,795.976c0.074,0.148,0.217,0.254,0.382,0.278l2.387,0.358
		l-1.737,1.676c-0.12,0.116-0.174,0.284-0.146,0.448l0.396,2.38l-2.13-1.134c-0.148-0.078-0.325-0.079-0.473-0.002l-2.142,1.11
		l0.42-2.376c0.029-0.164-0.024-0.332-0.144-0.449l-1.72-1.691l2.39-0.336c0.164-0.022,0.309-0.126,0.383-0.274l1.078-2.159
		L-672.874,795.976z"/>
	<path fill="#CFEA11" d="M-674.066,792.195v0.957h0.25v-0.968c-0.036-0.008-0.067-0.03-0.104-0.03
		C-673.973,792.154-674.018,792.179-674.066,792.195z"/>
	<polygon fill="#00AA97" points="-685.957,776.984 -686.078,776.864 -686.207,776.856 -686.207,778.897 -685.957,778.896 	"/>
	<polygon fill="#00AA97" points="-685.957,781.718 -685.957,779.792 -686.207,779.792 -686.207,781.834 -686.063,781.824 	"/>
	<polygon fill="#00AA97" points="-685.957,766.815 -686.207,766.815 -686.207,774.168 -685.957,774.151 	"/>
	<polygon fill="#00AA97" points="-686.207,793.791 -686.082,793.637 -685.957,793.791 -685.957,784.534 -686.207,784.519 	"/>
	
		<linearGradient id="SVGID_1_" gradientUnits="userSpaceOnUse" x1="-703.2014" y1="-1110.4656" x2="-686.0022" y2="-1110.4656" gradientTransform="matrix(1 0 0 -0.7934 8.52 -77.523)">
		<stop  offset="0" style="stop-color:#65C08A"/>
		<stop  offset="0.5" style="stop-color:#00A551"/>
		<stop  offset="1" style="stop-color:#00914D"/>
	</linearGradient>
	<polygon fill="url(#SVGID_1_)" points="-686.207,795.202 -686.207,793.791 -690.617,799.198 -688.349,799.198 -692.726,806.38 
		-689.404,806.38 -694.681,813.249 -686.082,813.249 -686.082,795.202 	"/>
	<polygon fill="#00AA97" points="-686.082,795.202 -686.082,793.637 -686.207,793.791 -686.207,795.202 	"/>
	
		<linearGradient id="SVGID_2_" gradientUnits="userSpaceOnUse" x1="-703.2014" y1="-1098.9958" x2="-686.0032" y2="-1098.9958" gradientTransform="matrix(1 0 0 -0.7934 8.52 -77.523)">
		<stop  offset="0" style="stop-color:#65C08A"/>
		<stop  offset="0.5" style="stop-color:#00A551"/>
		<stop  offset="1" style="stop-color:#00914D"/>
	</linearGradient>
	<polygon fill="url(#SVGID_2_)" points="-686.082,795.202 -686.082,793.637 -686.207,793.791 -686.207,795.202 	"/>
	
		<linearGradient id="SVGID_3_" gradientUnits="userSpaceOnUse" x1="-703.2004" y1="-1110.4656" x2="-686.0032" y2="-1110.4656" gradientTransform="matrix(1 0 0 -0.7934 8.52 -77.523)">
		<stop  offset="0" style="stop-color:#65C08A"/>
		<stop  offset="0.5" style="stop-color:#00A551"/>
		<stop  offset="1" style="stop-color:#00914D"/>
	</linearGradient>
	<polygon fill="url(#SVGID_3_)" points="-686.082,795.202 -686.082,813.249 -677.483,813.249 -682.76,806.38 -679.437,806.38 
		-683.814,799.198 -681.547,799.198 -685.957,793.791 -685.957,795.202 	"/>
	
		<linearGradient id="SVGID_4_" gradientUnits="userSpaceOnUse" x1="-694.6018" y1="-1110.4656" x2="-686.0032" y2="-1110.4656" gradientTransform="matrix(1 0 0 -0.7934 8.52 -77.523)">
		<stop  offset="0" style="stop-color:#B6D569"/>
		<stop  offset="0.5" style="stop-color:#00A551"/>
		<stop  offset="1" style="stop-color:#00914D"/>
	</linearGradient>
	<polygon fill="url(#SVGID_4_)" points="-686.082,795.202 -686.082,813.249 -677.483,813.249 -682.76,806.38 -679.437,806.38 
		-683.814,799.198 -681.547,799.198 -685.957,793.791 -685.957,795.202 	"/>
	<polygon fill="#00AA97" points="-686.082,795.202 -685.957,795.202 -685.957,793.791 -686.082,793.637 	"/>
	
		<linearGradient id="SVGID_5_" gradientUnits="userSpaceOnUse" x1="-703.2014" y1="-1098.9958" x2="-686.0032" y2="-1098.9958" gradientTransform="matrix(1 0 0 -0.7934 8.52 -77.523)">
		<stop  offset="0" style="stop-color:#65C08A"/>
		<stop  offset="0.5" style="stop-color:#00A551"/>
		<stop  offset="1" style="stop-color:#00914D"/>
	</linearGradient>
	<polygon fill="url(#SVGID_5_)" points="-686.082,795.202 -685.957,795.202 -685.957,793.791 -686.082,793.637 	"/>
	
		<linearGradient id="SVGID_6_" gradientUnits="userSpaceOnUse" x1="-694.6018" y1="-1098.9958" x2="-686.0032" y2="-1098.9958" gradientTransform="matrix(1 0 0 -0.7934 8.52 -77.523)">
		<stop  offset="0" style="stop-color:#B6D569"/>
		<stop  offset="0.5" style="stop-color:#00A551"/>
		<stop  offset="1" style="stop-color:#00914D"/>
	</linearGradient>
	<polygon fill="url(#SVGID_6_)" points="-686.082,795.202 -685.957,795.202 -685.957,793.791 -686.082,793.637 	"/>
	<polygon fill="#00AA97" points="-683.082,772.171 -682.957,772.17 -682.957,772.17 -682.832,772.17 -682.832,766.815 
		-683.082,766.815 	"/>
	
		<linearGradient id="SVGID_7_" gradientUnits="userSpaceOnUse" x1="-698.6438" y1="-744.9065" x2="-684.3113" y2="-744.9065" gradientTransform="matrix(1 0 0 -1 8.52 34.4292)">
		<stop  offset="0.0056" style="stop-color:#89CFC2"/>
		<stop  offset="0.5" style="stop-color:#00B5A7"/>
		<stop  offset="1" style="stop-color:#00A084"/>
	</linearGradient>
	<polygon fill="url(#SVGID_7_)" points="-683.082,775.745 -683.082,772.171 -683.426,772.172 -683.421,774.029 -684.146,773.212 
		-684.816,773.807 -683.417,775.382 -683.409,778.256 -685.447,776.228 -685.583,774.127 -685.957,774.151 -685.957,776.984 
		-684.04,778.889 -685.957,778.896 -685.957,779.792 -684.038,779.787 -685.957,781.718 -685.957,784.534 -685.552,784.557 
		-685.429,782.455 -683.403,780.417 -683.394,783.291 -684.783,784.874 -684.11,785.464 -683.39,784.643 -683.385,786.501 
		-682.957,786.5 -682.957,775.745 	"/>
	
		<linearGradient id="SVGID_8_" gradientUnits="userSpaceOnUse" x1="-698.6438" y1="-748.8533" x2="-684.3113" y2="-748.8533" gradientTransform="matrix(1 0 0 -1 8.52 34.4292)">
		<stop  offset="0.0056" style="stop-color:#89CFC2"/>
		<stop  offset="0.5" style="stop-color:#00B5A7"/>
		<stop  offset="1" style="stop-color:#00A084"/>
	</linearGradient>
	<polygon fill="url(#SVGID_8_)" points="-688.166,781.96 -688.107,782.853 -687.018,782.783 -688.327,784.101 -687.692,784.731 
		-686.382,783.414 -686.447,784.505 -686.207,784.519 -686.207,781.834 	"/>
	
		<linearGradient id="SVGID_9_" gradientUnits="userSpaceOnUse" x1="-698.6438" y1="-740.9812" x2="-684.3113" y2="-740.9812" gradientTransform="matrix(1 0 0 -1 8.52 34.4292)">
		<stop  offset="0.0056" style="stop-color:#89CFC2"/>
		<stop  offset="0.5" style="stop-color:#00B5A7"/>
		<stop  offset="1" style="stop-color:#00A084"/>
	</linearGradient>
	<polygon fill="url(#SVGID_9_)" points="-686.476,774.185 -686.406,775.275 -687.723,773.965 -688.355,774.6 -687.037,775.911 
		-688.128,775.845 -688.18,776.739 -686.207,776.856 -686.207,774.168 	"/>
	
		<linearGradient id="SVGID_10_" gradientUnits="userSpaceOnUse" x1="-698.6438" y1="-744.9211" x2="-684.3113" y2="-744.9211" gradientTransform="matrix(1 0 0 -1 8.52 34.4292)">
		<stop  offset="0.0056" style="stop-color:#89CFC2"/>
		<stop  offset="0.5" style="stop-color:#00B5A7"/>
		<stop  offset="1" style="stop-color:#00A084"/>
	</linearGradient>
	<polygon fill="url(#SVGID_10_)" points="-686.913,778.9 -688.496,777.509 -689.087,778.182 -688.266,778.903 -690.124,778.908 
		-690.121,779.803 -688.263,779.798 -689.08,780.524 -688.486,781.192 -686.911,779.794 -686.207,779.792 -686.207,778.897 	"/>
	
		<linearGradient id="SVGID_11_" gradientUnits="userSpaceOnUse" x1="-698.6438" y1="-739.1858" x2="-684.3113" y2="-739.1858" gradientTransform="matrix(1 0 0 -1 8.52 34.4292)">
		<stop  offset="0.0056" style="stop-color:#89CFC2"/>
		<stop  offset="0.5" style="stop-color:#00B5A7"/>
		<stop  offset="1" style="stop-color:#00A084"/>
	</linearGradient>
	<polygon fill="url(#SVGID_11_)" points="-681.131,773.796 -681.805,773.205 -682.525,774.025 -681.805,773.206 	"/>
	<polygon fill="#00AA97" points="-685.957,776.984 -685.957,774.151 -686.207,774.168 -686.207,776.856 -686.078,776.864 	"/>
	
		<linearGradient id="SVGID_12_" gradientUnits="userSpaceOnUse" x1="-698.6438" y1="-741.1384" x2="-684.3113" y2="-741.1384" gradientTransform="matrix(1 0 0 -1 8.52 34.4292)">
		<stop  offset="0.0056" style="stop-color:#89CFC2"/>
		<stop  offset="0.5" style="stop-color:#00B5A7"/>
		<stop  offset="1" style="stop-color:#00A084"/>
	</linearGradient>
	<polygon fill="url(#SVGID_12_)" points="-685.957,776.984 -685.957,774.151 -686.207,774.168 -686.207,776.856 -686.078,776.864 	
		"/>
	<polygon fill="#00AA97" points="-686.063,781.824 -686.207,781.834 -686.207,784.519 -685.957,784.534 -685.957,781.718 	"/>
	
		<linearGradient id="SVGID_13_" gradientUnits="userSpaceOnUse" x1="-698.6438" y1="-748.6965" x2="-684.3113" y2="-748.6965" gradientTransform="matrix(1 0 0 -1 8.52 34.4292)">
		<stop  offset="0.0056" style="stop-color:#89CFC2"/>
		<stop  offset="0.5" style="stop-color:#00B5A7"/>
		<stop  offset="1" style="stop-color:#00A084"/>
	</linearGradient>
	<polygon fill="url(#SVGID_13_)" points="-686.063,781.824 -686.207,781.834 -686.207,784.519 -685.957,784.534 -685.957,781.718 	
		"/>
	<rect x="-686.207" y="778.897" fill="#00AA97" width="0.25" height="0.895"/>
	
		<linearGradient id="SVGID_14_" gradientUnits="userSpaceOnUse" x1="-698.6438" y1="-744.9148" x2="-684.3113" y2="-744.9148" gradientTransform="matrix(1 0 0 -1 8.52 34.4292)">
		<stop  offset="0.0056" style="stop-color:#89CFC2"/>
		<stop  offset="0.5" style="stop-color:#00B5A7"/>
		<stop  offset="1" style="stop-color:#00A084"/>
	</linearGradient>
	<rect x="-686.207" y="778.897" fill="url(#SVGID_14_)" width="0.25" height="0.895"/>
	<rect x="-683.082" y="772.17" fill="#00AA97" width="0.125" height="3.575"/>
	
		<linearGradient id="SVGID_15_" gradientUnits="userSpaceOnUse" x1="-698.6438" y1="-739.5281" x2="-684.3113" y2="-739.5281" gradientTransform="matrix(1 0 0 -1 8.52 34.4292)">
		<stop  offset="0.0056" style="stop-color:#89CFC2"/>
		<stop  offset="0.5" style="stop-color:#00B5A7"/>
		<stop  offset="1" style="stop-color:#00A084"/>
	</linearGradient>
	<rect x="-683.082" y="772.17" fill="url(#SVGID_15_)" width="0.125" height="3.575"/>
	
		<linearGradient id="SVGID_16_" gradientUnits="userSpaceOnUse" x1="-691.4773" y1="-752.0696" x2="-684.3113" y2="-752.0696" gradientTransform="matrix(1 0 0 -1 8.52 34.4292)">
		<stop  offset="0.0056" style="stop-color:#89CFC2"/>
		<stop  offset="0.5" style="stop-color:#00B5A7"/>
		<stop  offset="1" style="stop-color:#00A084"/>
	</linearGradient>
	<polygon fill="url(#SVGID_16_)" points="-682.957,786.5 -682.489,786.498 -682.957,786.5 	"/>
	
		<linearGradient id="SVGID_17_" gradientUnits="userSpaceOnUse" x1="-691.4773" y1="-737.74" x2="-684.3113" y2="-737.74" gradientTransform="matrix(1 0 0 -1 8.52 34.4292)">
		<stop  offset="0.0056" style="stop-color:#89CFC2"/>
		<stop  offset="0.5" style="stop-color:#00B5A7"/>
		<stop  offset="1" style="stop-color:#00A084"/>
	</linearGradient>
	<polygon fill="url(#SVGID_17_)" points="-682.531,772.169 -682.832,772.17 -682.832,772.17 	"/>
	<rect x="-682.957" y="772.17" fill="#00AA97" width="0.125" height="0"/>
	
		<linearGradient id="SVGID_18_" gradientUnits="userSpaceOnUse" x1="-691.4773" y1="-737.7405" x2="-684.3113" y2="-737.7405" gradientTransform="matrix(1 0 0 -1 8.52 34.4292)">
		<stop  offset="0.0056" style="stop-color:#89CFC2"/>
		<stop  offset="0.5" style="stop-color:#00B5A7"/>
		<stop  offset="1" style="stop-color:#00A084"/>
	</linearGradient>
	<rect x="-682.957" y="772.17" fill="url(#SVGID_18_)" width="0.125" height="0"/>
	
		<linearGradient id="SVGID_19_" gradientUnits="userSpaceOnUse" x1="-698.6433" y1="-744.905" x2="-684.3113" y2="-744.905" gradientTransform="matrix(1 0 0 -1 8.52 34.4292)">
		<stop  offset="0.0056" style="stop-color:#89CFC2"/>
		<stop  offset="0.5" style="stop-color:#00B5A7"/>
		<stop  offset="1" style="stop-color:#00A084"/>
	</linearGradient>
	<polygon fill="url(#SVGID_19_)" points="-682.832,775.745 -682.957,775.745 -682.957,786.5 -682.489,786.498 -682.494,784.639 
		-681.769,785.458 -681.099,784.864 -682.499,783.288 -682.507,780.415 -680.469,782.44 -680.332,784.543 -679.439,784.484 
		-679.509,783.395 -678.193,784.704 -677.561,784.069 -678.878,782.76 -677.788,782.823 -677.735,781.929 -679.838,781.805 
		-681.877,779.779 -679.003,779.77 -677.419,781.161 -676.828,780.488 -677.649,779.767 -675.791,779.761 -675.794,778.866 
		-677.651,778.872 -676.835,778.146 -677.43,777.475 -679.004,778.876 -681.878,778.884 -679.852,776.845 -677.75,776.709 
		-677.809,775.817 -678.898,775.887 -677.589,774.569 -678.223,773.938 -679.533,775.256 -679.469,774.166 -680.363,774.112 
		-680.487,776.216 -682.513,778.254 -682.521,775.379 -681.131,773.796 -681.805,773.206 -682.525,774.025 -682.531,772.169 
		-682.832,772.17 	"/>
	
		<linearGradient id="SVGID_20_" gradientUnits="userSpaceOnUse" x1="-691.4773" y1="-744.905" x2="-684.3113" y2="-744.905" gradientTransform="matrix(1 0 0 -1 8.52 34.4292)">
		<stop  offset="0.0056" style="stop-color:#89CFC2"/>
		<stop  offset="0.5" style="stop-color:#00B5A7"/>
		<stop  offset="1" style="stop-color:#00A084"/>
	</linearGradient>
	<polygon fill="url(#SVGID_20_)" points="-682.832,775.745 -682.957,775.745 -682.957,786.5 -682.489,786.498 -682.494,784.639 
		-681.769,785.458 -681.099,784.864 -682.499,783.288 -682.507,780.415 -680.469,782.44 -680.332,784.543 -679.439,784.484 
		-679.509,783.395 -678.193,784.704 -677.561,784.069 -678.878,782.76 -677.788,782.823 -677.735,781.929 -679.838,781.805 
		-681.877,779.779 -679.003,779.77 -677.419,781.161 -676.828,780.488 -677.649,779.767 -675.791,779.761 -675.794,778.866 
		-677.651,778.872 -676.835,778.146 -677.43,777.475 -679.004,778.876 -681.878,778.884 -679.852,776.845 -677.75,776.709 
		-677.809,775.817 -678.898,775.887 -677.589,774.569 -678.223,773.938 -679.533,775.256 -679.469,774.166 -680.363,774.112 
		-680.487,776.216 -682.513,778.254 -682.521,775.379 -681.131,773.796 -681.805,773.206 -682.525,774.025 -682.531,772.169 
		-682.832,772.17 	"/>
	<rect x="-682.957" y="772.17" fill="#00AA97" width="0.125" height="3.575"/>
	
		<linearGradient id="SVGID_21_" gradientUnits="userSpaceOnUse" x1="-698.6438" y1="-739.5281" x2="-684.3113" y2="-739.5281" gradientTransform="matrix(1 0 0 -1 8.52 34.4292)">
		<stop  offset="0.0056" style="stop-color:#89CFC2"/>
		<stop  offset="0.5" style="stop-color:#00B5A7"/>
		<stop  offset="1" style="stop-color:#00A084"/>
	</linearGradient>
	<rect x="-682.957" y="772.17" fill="url(#SVGID_21_)" width="0.125" height="3.575"/>
	
		<linearGradient id="SVGID_22_" gradientUnits="userSpaceOnUse" x1="-691.4773" y1="-739.5281" x2="-684.3113" y2="-739.5281" gradientTransform="matrix(1 0 0 -1 8.52 34.4292)">
		<stop  offset="0.0056" style="stop-color:#89CFC2"/>
		<stop  offset="0.5" style="stop-color:#00B5A7"/>
		<stop  offset="1" style="stop-color:#00A084"/>
	</linearGradient>
	<rect x="-682.957" y="772.17" fill="url(#SVGID_22_)" width="0.125" height="3.575"/>
	<path fill="#00AA97" d="M-697.676,782.06c0.014-0.007,0.033-0.016,0.048-0.022v-0.17
		C-697.647,781.936-697.663,782.002-697.676,782.06z"/>
	<path fill="#00AA97" d="M-697.878,779.455c0.028-0.079,0.048-0.156,0.083-0.237c0.047-0.108,0.104-0.221,0.167-0.333v-12.069h-0.25
		V779.455z"/>
	
		<radialGradient id="SVGID_23_" cx="-704.1267" cy="-745.7268" r="2.5084" gradientTransform="matrix(1 0 0 -1 8.52 34.4292)" gradientUnits="userSpaceOnUse">
		<stop  offset="0" style="stop-color:#F7E9C6"/>
		<stop  offset="0.5" style="stop-color:#F2DB9A"/>
		<stop  offset="1" style="stop-color:#E9C44C"/>
	</radialGradient>
	<path fill="url(#SVGID_23_)" d="M-698.067,781.801c-0.007,0.186-0.024,0.33-0.035,0.428l-0.026,0.165l0.02,0.107h0.23v-3.046
		c-0.1,0.282-0.174,0.555-0.219,0.806c-0.019,0.104-0.017,0.185-0.029,0.282c0.025,0.205,0.054,0.416,0.062,0.592
		C-698.05,781.393-698.058,781.617-698.067,781.801z"/>
	
		<radialGradient id="SVGID_24_" cx="-704.1267" cy="-745.7268" r="2.5084" gradientTransform="matrix(1 0 0 -1 8.52 34.4292)" gradientUnits="userSpaceOnUse">
		<stop  offset="0" style="stop-color:#F7E9C6"/>
		<stop  offset="0.5" style="stop-color:#F2DB9A"/>
		<stop  offset="1" style="stop-color:#E9C44C"/>
	</radialGradient>
	<path fill="url(#SVGID_24_)" d="M-697.625,781.856c0.086-0.338,0.212-0.821,0.417-1.356c0.102-0.263,0.224-0.542,0.38-0.796
		c0.15-0.256,0.343-0.48,0.542-0.599c0.199-0.114,0.391-0.141,0.659-0.086c0.262,0.06,0.572,0.205,0.867,0.397
		c0.049,0.03,0.074,0.05,0.103,0.068c0.031,0.021,0.059,0.046,0.088,0.068c0.062,0.048,0.111,0.094,0.156,0.14
		c0.085,0.089,0.117,0.159,0.123,0.178c0.005,0.018,0.014,0.053-0.034,0.144c-0.048,0.088-0.139,0.195-0.25,0.3
		c-0.224,0.208-0.506,0.398-0.784,0.567c-0.28,0.17-0.56,0.321-0.823,0.456c-0.526,0.271-0.985,0.48-1.304,0.632
		c-0.054,0.025-0.1,0.047-0.146,0.068v0.463h0.288c0.005-0.001,0.009-0.001,0.014-0.002c0.362-0.053,0.872-0.149,1.48-0.323
		c0.303-0.089,0.629-0.199,0.972-0.347c0.342-0.15,0.702-0.325,1.066-0.604c0.182-0.142,0.367-0.311,0.53-0.553
		c0.081-0.122,0.154-0.266,0.204-0.436c0.051-0.169,0.069-0.363,0.042-0.549c-0.055-0.379-0.246-0.666-0.431-0.874
		c-0.097-0.102-0.194-0.192-0.293-0.272c-0.049-0.038-0.098-0.077-0.153-0.116c-0.054-0.04-0.11-0.08-0.148-0.104
		c-0.386-0.244-0.818-0.471-1.342-0.56c-0.26-0.041-0.544-0.052-0.824,0.013c-0.278,0.06-0.542,0.185-0.755,0.346
		c-0.3,0.229-0.5,0.498-0.65,0.764v2.983C-697.627,781.864-697.626,781.86-697.625,781.856z"/>
	<path fill="#00AA97" d="M-697.878,779.455v3.046h0.25v-0.463c-0.015,0.007-0.034,0.016-0.048,0.022
		c0.013-0.059,0.029-0.124,0.048-0.192v-2.983c-0.063,0.112-0.12,0.225-0.167,0.333
		C-697.829,779.299-697.849,779.376-697.878,779.455z"/>
	
		<radialGradient id="SVGID_25_" cx="-704.1267" cy="-745.7268" r="2.5084" gradientTransform="matrix(1 0 0 -1 8.52 34.4292)" gradientUnits="userSpaceOnUse">
		<stop  offset="0" style="stop-color:#F7E9C6"/>
		<stop  offset="0.5" style="stop-color:#F2DB9A"/>
		<stop  offset="1" style="stop-color:#E9C44C"/>
	</radialGradient>
	<path fill="url(#SVGID_25_)" d="M-697.878,779.455v3.046h0.25v-0.463c-0.015,0.007-0.034,0.016-0.048,0.022
		c0.013-0.059,0.029-0.124,0.048-0.192v-2.983c-0.063,0.112-0.12,0.225-0.167,0.333
		C-697.829,779.299-697.849,779.376-697.878,779.455z"/>
	
		<radialGradient id="SVGID_26_" cx="-709.1638" cy="-745.7268" r="2.5086" gradientTransform="matrix(1 0 0 -1 8.52 34.4292)" gradientUnits="userSpaceOnUse">
		<stop  offset="0" style="stop-color:#F7E9C6"/>
		<stop  offset="0.5" style="stop-color:#F2DB9A"/>
		<stop  offset="1" style="stop-color:#E9C44C"/>
	</radialGradient>
	<path fill="url(#SVGID_26_)" d="M-698.128,782.393l-0.002-0.012c0,0-0.009-0.056-0.02-0.153c-0.01-0.098-0.028-0.242-0.035-0.428
		c-0.008-0.184-0.017-0.407-0.002-0.666c0.007-0.176,0.036-0.387,0.061-0.592c-0.012-0.098-0.011-0.179-0.029-0.282
		c-0.058-0.321-0.143-0.674-0.301-1.043c-0.16-0.367-0.391-0.771-0.818-1.097c-0.211-0.161-0.475-0.286-0.755-0.346
		c-0.279-0.065-0.563-0.055-0.823-0.013c-0.526,0.089-0.958,0.315-1.343,0.56c-0.038,0.023-0.095,0.063-0.148,0.104
		c-0.055,0.039-0.104,0.078-0.153,0.116c-0.1,0.08-0.197,0.171-0.292,0.272c-0.186,0.208-0.377,0.495-0.431,0.874
		c-0.026,0.185-0.007,0.38,0.042,0.549c0.049,0.171,0.124,0.314,0.204,0.436c0.163,0.242,0.349,0.411,0.531,0.553
		c0.364,0.278,0.724,0.453,1.067,0.604c0.341,0.147,0.668,0.258,0.973,0.347c0.606,0.174,1.117,0.271,1.478,0.323
		c0.005,0.001,0.008,0.001,0.013,0.002h0.767L-698.128,782.393z M-698.765,781.969c-0.32-0.151-0.778-0.361-1.304-0.632
		c-0.263-0.135-0.543-0.286-0.823-0.456c-0.276-0.169-0.561-0.359-0.784-0.567c-0.11-0.104-0.202-0.212-0.25-0.3
		c-0.047-0.091-0.039-0.126-0.034-0.144c0.005-0.021,0.039-0.09,0.125-0.178c0.044-0.046,0.094-0.092,0.155-0.14
		c0.03-0.022,0.06-0.047,0.089-0.068c0.028-0.019,0.054-0.038,0.103-0.068c0.294-0.193,0.604-0.339,0.867-0.397
		c0.269-0.055,0.462-0.028,0.66,0.086c0.199,0.118,0.391,0.343,0.543,0.599c0.155,0.254,0.28,0.533,0.38,0.796
		c0.204,0.534,0.329,1.019,0.416,1.356c0.019,0.074,0.035,0.143,0.05,0.204C-698.632,782.032-698.696,782.003-698.765,781.969z"/>
	
		<radialGradient id="SVGID_27_" cx="-704.1267" cy="-745.7268" r="2.5084" gradientTransform="matrix(1 0 0 -1 8.52 34.4292)" gradientUnits="userSpaceOnUse">
		<stop  offset="0" style="stop-color:#F7E9C6"/>
		<stop  offset="0.5" style="stop-color:#F2DB9A"/>
		<stop  offset="1" style="stop-color:#E9C44C"/>
	</radialGradient>
	<path fill="url(#SVGID_27_)" d="M-698.185,781.801c0.007,0.186,0.025,0.33,0.035,0.428c0.011,0.098,0.02,0.153,0.02,0.153
		l0.002,0.012l0.026-0.165c0.011-0.098,0.028-0.242,0.035-0.428c0.008-0.184,0.017-0.407,0.002-0.666
		c-0.007-0.176-0.036-0.387-0.062-0.592c-0.025,0.205-0.054,0.416-0.061,0.592C-698.201,781.393-698.193,781.617-698.185,781.801z"
		/>
	
		<radialGradient id="SVGID_28_" cx="-709.1638" cy="-745.7268" r="2.5086" gradientTransform="matrix(1 0 0 -1 8.52 34.4292)" gradientUnits="userSpaceOnUse">
		<stop  offset="0" style="stop-color:#F7E9C6"/>
		<stop  offset="0.5" style="stop-color:#F2DB9A"/>
		<stop  offset="1" style="stop-color:#E9C44C"/>
	</radialGradient>
	<path fill="url(#SVGID_28_)" d="M-698.185,781.801c0.007,0.186,0.025,0.33,0.035,0.428c0.011,0.098,0.02,0.153,0.02,0.153
		l0.002,0.012l0.026-0.165c0.011-0.098,0.028-0.242,0.035-0.428c0.008-0.184,0.017-0.407,0.002-0.666
		c-0.007-0.176-0.036-0.387-0.062-0.592c-0.025,0.205-0.054,0.416-0.061,0.592C-698.201,781.393-698.193,781.617-698.185,781.801z"
		/>
	
		<linearGradient id="SVGID_29_" gradientUnits="userSpaceOnUse" x1="-709.4099" y1="-743.2854" x2="-698.4349" y2="-753.394" gradientTransform="matrix(1 0 0 -1 8.52 34.4292)">
		<stop  offset="0" style="stop-color:#F69353"/>
		<stop  offset="0.5" style="stop-color:#F37521"/>
		<stop  offset="1" style="stop-color:#D4622A"/>
	</linearGradient>
	<path fill="url(#SVGID_29_)" d="M-693.969,787.094h1.601v-4.541h-4.891v1.326C-695.615,784.19-694.315,785.464-693.969,787.094z"/>
	
		<linearGradient id="SVGID_30_" gradientUnits="userSpaceOnUse" x1="-713.3035" y1="-747.5125" x2="-702.3285" y2="-757.621" gradientTransform="matrix(1 0 0 -1 8.52 34.4292)">
		<stop  offset="0" style="stop-color:#F69353"/>
		<stop  offset="0.5" style="stop-color:#F37521"/>
		<stop  offset="1" style="stop-color:#D4622A"/>
	</linearGradient>
	<path fill="url(#SVGID_30_)" d="M-697.259,792.039v1.38h4.891v-4.593h-1.601C-694.315,790.456-695.615,791.728-697.259,792.039z"/>
	
		<linearGradient id="SVGID_31_" gradientUnits="userSpaceOnUse" x1="-717.0564" y1="-751.5872" x2="-706.0814" y2="-761.6957" gradientTransform="matrix(1 0 0 -1 8.52 34.4292)">
		<stop  offset="0" style="stop-color:#F69353"/>
		<stop  offset="0.5" style="stop-color:#F37521"/>
		<stop  offset="1" style="stop-color:#D4622A"/>
	</linearGradient>
	<path fill="url(#SVGID_31_)" d="M-702.098,788.826h-1.785v4.593h4.892v-1.423C-700.546,791.628-701.765,790.395-702.098,788.826z"
		/>
	
		<linearGradient id="SVGID_32_" gradientUnits="userSpaceOnUse" x1="-713.2039" y1="-747.4045" x2="-702.2289" y2="-757.5131" gradientTransform="matrix(1 0 0 -1 8.52 34.4292)">
		<stop  offset="0" style="stop-color:#F69353"/>
		<stop  offset="0.5" style="stop-color:#F37521"/>
		<stop  offset="1" style="stop-color:#D4622A"/>
	</linearGradient>
	<path fill="url(#SVGID_32_)" d="M-698.991,783.922v-1.369h-4.892v4.541h1.785C-701.765,785.525-700.546,784.291-698.991,783.922z"
		/>
	
		<radialGradient id="SVGID_33_" cx="-706.6453" cy="-753.5305" r="3.9084" gradientTransform="matrix(1 0 0 -1 8.52 34.4292)" gradientUnits="userSpaceOnUse">
		<stop  offset="0" style="stop-color:#F7E9C6"/>
		<stop  offset="0.5" style="stop-color:#F2DB9A"/>
		<stop  offset="1" style="stop-color:#E9C44C"/>
	</radialGradient>
	<path fill="url(#SVGID_33_)" d="M-698.912,782.501h-0.08v0.052h0.478C-698.608,782.542-698.744,782.529-698.912,782.501z"/>
	
		<radialGradient id="SVGID_34_" cx="-706.6453" cy="-753.5305" r="3.9084" gradientTransform="matrix(1 0 0 -1 8.52 34.4292)" gradientUnits="userSpaceOnUse">
		<stop  offset="0" style="stop-color:#F7E9C6"/>
		<stop  offset="0.5" style="stop-color:#F2DB9A"/>
		<stop  offset="1" style="stop-color:#E9C44C"/>
	</radialGradient>
	<polygon fill="url(#SVGID_34_)" points="-698.145,782.501 -698.153,782.552 -698.098,782.552 -698.108,782.501 	"/>
	
		<radialGradient id="SVGID_35_" cx="-706.6453" cy="-753.5305" r="3.9084" gradientTransform="matrix(1 0 0 -1 8.52 34.4292)" gradientUnits="userSpaceOnUse">
		<stop  offset="0" style="stop-color:#F7E9C6"/>
		<stop  offset="0.5" style="stop-color:#F2DB9A"/>
		<stop  offset="1" style="stop-color:#E9C44C"/>
	</radialGradient>
	<path fill="url(#SVGID_35_)" d="M-697.628,782.552h0.369v-0.052h-0.081c-0.114,0.02-0.207,0.03-0.288,0.039V782.552z"/>
	<path fill="#00AA97" d="M-697.628,782.552v-0.013c-0.039,0.005-0.079,0.009-0.109,0.013H-697.628z"/>
	
		<radialGradient id="SVGID_36_" cx="-706.6453" cy="-753.5305" r="3.9084" gradientTransform="matrix(1 0 0 -1 8.52 34.4292)" gradientUnits="userSpaceOnUse">
		<stop  offset="0" style="stop-color:#F7E9C6"/>
		<stop  offset="0.5" style="stop-color:#F2DB9A"/>
		<stop  offset="1" style="stop-color:#E9C44C"/>
	</radialGradient>
	<path fill="url(#SVGID_36_)" d="M-697.628,782.552v-0.013c-0.039,0.005-0.079,0.009-0.109,0.013H-697.628z"/>
	
		<radialGradient id="SVGID_37_" cx="-704.1267" cy="-745.7268" r="2.5084" gradientTransform="matrix(1 0 0 -1 8.52 34.4292)" gradientUnits="userSpaceOnUse">
		<stop  offset="0" style="stop-color:#F7E9C6"/>
		<stop  offset="0.5" style="stop-color:#F2DB9A"/>
		<stop  offset="1" style="stop-color:#E9C44C"/>
	</radialGradient>
	<path fill="url(#SVGID_37_)" d="M-697.628,782.54c0.081-0.009,0.174-0.02,0.288-0.039h-0.288V782.54z"/>
	
		<radialGradient id="SVGID_38_" cx="-706.6453" cy="-753.5305" r="3.9084" gradientTransform="matrix(1 0 0 -1 8.52 34.4292)" gradientUnits="userSpaceOnUse">
		<stop  offset="0" style="stop-color:#F7E9C6"/>
		<stop  offset="0.5" style="stop-color:#F2DB9A"/>
		<stop  offset="1" style="stop-color:#E9C44C"/>
	</radialGradient>
	<path fill="url(#SVGID_38_)" d="M-697.628,782.54c0.081-0.009,0.174-0.02,0.288-0.039h-0.288V782.54z"/>
	
		<radialGradient id="SVGID_39_" cx="-704.1267" cy="-745.7268" r="2.5084" gradientTransform="matrix(1 0 0 -1 8.52 34.4292)" gradientUnits="userSpaceOnUse">
		<stop  offset="0" style="stop-color:#F7E9C6"/>
		<stop  offset="0.5" style="stop-color:#F2DB9A"/>
		<stop  offset="1" style="stop-color:#E9C44C"/>
	</radialGradient>
	<polygon fill="url(#SVGID_39_)" points="-698.098,782.552 -697.878,782.552 -697.878,782.501 -698.108,782.501 	"/>
	
		<radialGradient id="SVGID_40_" cx="-706.6453" cy="-753.5305" r="3.9084" gradientTransform="matrix(1 0 0 -1 8.52 34.4292)" gradientUnits="userSpaceOnUse">
		<stop  offset="0" style="stop-color:#F7E9C6"/>
		<stop  offset="0.5" style="stop-color:#F2DB9A"/>
		<stop  offset="1" style="stop-color:#E9C44C"/>
	</radialGradient>
	<polygon fill="url(#SVGID_40_)" points="-698.098,782.552 -697.878,782.552 -697.878,782.501 -698.108,782.501 	"/>
	<path fill="#00AA97" d="M-697.737,782.552c0.03-0.004,0.071-0.008,0.109-0.013v-0.039h-0.25v0.052H-697.737z"/>
	
		<radialGradient id="SVGID_41_" cx="-704.1267" cy="-745.7268" r="2.5084" gradientTransform="matrix(1 0 0 -1 8.52 34.4292)" gradientUnits="userSpaceOnUse">
		<stop  offset="0" style="stop-color:#F7E9C6"/>
		<stop  offset="0.5" style="stop-color:#F2DB9A"/>
		<stop  offset="1" style="stop-color:#E9C44C"/>
	</radialGradient>
	<path fill="url(#SVGID_41_)" d="M-697.737,782.552c0.03-0.004,0.071-0.008,0.109-0.013v-0.039h-0.25v0.052H-697.737z"/>
	
		<radialGradient id="SVGID_42_" cx="-706.6453" cy="-753.5305" r="3.9084" gradientTransform="matrix(1 0 0 -1 8.52 34.4292)" gradientUnits="userSpaceOnUse">
		<stop  offset="0" style="stop-color:#F7E9C6"/>
		<stop  offset="0.5" style="stop-color:#F2DB9A"/>
		<stop  offset="1" style="stop-color:#E9C44C"/>
	</radialGradient>
	<path fill="url(#SVGID_42_)" d="M-697.737,782.552c0.03-0.004,0.071-0.008,0.109-0.013v-0.039h-0.25v0.052H-697.737z"/>
	
		<radialGradient id="SVGID_43_" cx="-709.1638" cy="-745.7268" r="2.5086" gradientTransform="matrix(1 0 0 -1 8.52 34.4292)" gradientUnits="userSpaceOnUse">
		<stop  offset="0" style="stop-color:#F7E9C6"/>
		<stop  offset="0.5" style="stop-color:#F2DB9A"/>
		<stop  offset="1" style="stop-color:#E9C44C"/>
	</radialGradient>
	<path fill="url(#SVGID_43_)" d="M-698.153,782.552l0.008-0.052h-0.767c0.168,0.028,0.304,0.041,0.398,0.052H-698.153z"/>
	
		<radialGradient id="SVGID_44_" cx="-706.6453" cy="-753.5305" r="3.9084" gradientTransform="matrix(1 0 0 -1 8.52 34.4292)" gradientUnits="userSpaceOnUse">
		<stop  offset="0" style="stop-color:#F7E9C6"/>
		<stop  offset="0.5" style="stop-color:#F2DB9A"/>
		<stop  offset="1" style="stop-color:#E9C44C"/>
	</radialGradient>
	<path fill="url(#SVGID_44_)" d="M-698.153,782.552l0.008-0.052h-0.767c0.168,0.028,0.304,0.041,0.398,0.052H-698.153z"/>
	
		<linearGradient id="SVGID_45_" gradientUnits="userSpaceOnUse" x1="-715.6238" y1="-750.0315" x2="-704.6488" y2="-760.1401" gradientTransform="matrix(1 0 0 -1 8.52 34.4292)">
		<stop  offset="0" style="stop-color:#F69353"/>
		<stop  offset="0.5" style="stop-color:#F37521"/>
		<stop  offset="1" style="stop-color:#D4622A"/>
	</linearGradient>
	<path fill="url(#SVGID_45_)" d="M-698.035,792.117c-0.331,0-0.648-0.049-0.957-0.121v1.423h1.732v-1.38
		C-697.511,792.087-697.769,792.117-698.035,792.117z"/>
	
		<radialGradient id="SVGID_46_" cx="-706.6453" cy="-753.5305" r="3.9084" gradientTransform="matrix(1 0 0 -1 8.52 34.4292)" gradientUnits="userSpaceOnUse">
		<stop  offset="0" style="stop-color:#F7E9C6"/>
		<stop  offset="0.5" style="stop-color:#F2DB9A"/>
		<stop  offset="1" style="stop-color:#E9C44C"/>
	</radialGradient>
	<path fill="url(#SVGID_46_)" d="M-698.035,792.117c-0.331,0-0.648-0.049-0.957-0.121v1.423h1.732v-1.38
		C-697.511,792.087-697.769,792.117-698.035,792.117z"/>
	
		<linearGradient id="SVGID_47_" gradientUnits="userSpaceOnUse" x1="-710.8938" y1="-744.8962" x2="-699.9188" y2="-755.0048" gradientTransform="matrix(1 0 0 -1 8.52 34.4292)">
		<stop  offset="0" style="stop-color:#F69353"/>
		<stop  offset="0.5" style="stop-color:#F37521"/>
		<stop  offset="1" style="stop-color:#D4622A"/>
	</linearGradient>
	<path fill="url(#SVGID_47_)" d="M-697.628,783.505h-0.25v-0.94l-0.215,0.019l-0.005-0.03h-0.055l-0.005,0.03l-0.196-0.017
		c0,0-0.053-0.005-0.151-0.013c-0.002,0-0.006-0.001-0.009-0.001h-0.478v1.369c0.309-0.072,0.626-0.121,0.957-0.121
		c0.266,0,0.524,0.03,0.776,0.078v-1.326h-0.369V783.505z"/>
	
		<radialGradient id="SVGID_48_" cx="-706.6453" cy="-753.5305" r="3.9084" gradientTransform="matrix(1 0 0 -1 8.52 34.4292)" gradientUnits="userSpaceOnUse">
		<stop  offset="0" style="stop-color:#F7E9C6"/>
		<stop  offset="0.5" style="stop-color:#F2DB9A"/>
		<stop  offset="1" style="stop-color:#E9C44C"/>
	</radialGradient>
	<path fill="url(#SVGID_48_)" d="M-697.628,783.505h-0.25v-0.94l-0.215,0.019l-0.005-0.03h-0.055l-0.005,0.03l-0.196-0.017
		c0,0-0.053-0.005-0.151-0.013c-0.002,0-0.006-0.001-0.009-0.001h-0.478v1.369c0.309-0.072,0.626-0.121,0.957-0.121
		c0.266,0,0.524,0.03,0.776,0.078v-1.326h-0.369V783.505z"/>
	<polygon fill="#00AA97" points="-697.746,782.553 -697.878,782.564 -697.878,783.505 -697.628,783.505 -697.628,782.552 
		-697.737,782.552 	"/>
	
		<linearGradient id="SVGID_49_" gradientUnits="userSpaceOnUse" x1="-710.6194" y1="-744.5984" x2="-699.6444" y2="-754.707" gradientTransform="matrix(1 0 0 -1 8.52 34.4292)">
		<stop  offset="0" style="stop-color:#F69353"/>
		<stop  offset="0.5" style="stop-color:#F37521"/>
		<stop  offset="1" style="stop-color:#D4622A"/>
	</linearGradient>
	<polygon fill="url(#SVGID_49_)" points="-697.746,782.553 -697.878,782.564 -697.878,783.505 -697.628,783.505 -697.628,782.552 
		-697.737,782.552 	"/>
	
		<radialGradient id="SVGID_57_" cx="-706.6453" cy="-753.5305" r="3.9084" gradientTransform="matrix(1 0 0 -1 8.52 34.4292)" gradientUnits="userSpaceOnUse">
		<stop  offset="0" style="stop-color:#F7E9C6"/>
		<stop  offset="0.5" style="stop-color:#F2DB9A"/>
		<stop  offset="1" style="stop-color:#E9C44C"/>
	</radialGradient>
	<polygon fill="url(#SVGID_57_)" points="-697.746,782.553 -697.878,782.564 -697.878,783.505 -697.628,783.505 -697.628,782.552 
		-697.737,782.552 	"/>
	
		<radialGradient id="SVGID_58_" cx="-704.1267" cy="-745.7268" r="2.5084" gradientTransform="matrix(1 0 0 -1 8.52 34.4292)" gradientUnits="userSpaceOnUse">
		<stop  offset="0" style="stop-color:#F7E9C6"/>
		<stop  offset="0.5" style="stop-color:#F2DB9A"/>
		<stop  offset="1" style="stop-color:#E9C44C"/>
	</radialGradient>
	<polygon fill="url(#SVGID_58_)" points="-698.098,782.552 -698.093,782.583 -697.878,782.564 -697.878,782.552 	"/>
	
		<linearGradient id="SVGID_59_" gradientUnits="userSpaceOnUse" x1="-710.4963" y1="-744.4646" x2="-699.5214" y2="-754.5732" gradientTransform="matrix(1 0 0 -1 8.52 34.4292)">
		<stop  offset="0" style="stop-color:#F69353"/>
		<stop  offset="0.5" style="stop-color:#F37521"/>
		<stop  offset="1" style="stop-color:#D4622A"/>
	</linearGradient>
	<polygon fill="url(#SVGID_59_)" points="-698.098,782.552 -698.093,782.583 -697.878,782.564 -697.878,782.552 	"/>
	
		<radialGradient id="SVGID_60_" cx="-706.6453" cy="-753.5305" r="3.9084" gradientTransform="matrix(1 0 0 -1 8.52 34.4292)" gradientUnits="userSpaceOnUse">
		<stop  offset="0" style="stop-color:#F7E9C6"/>
		<stop  offset="0.5" style="stop-color:#F2DB9A"/>
		<stop  offset="1" style="stop-color:#E9C44C"/>
	</radialGradient>
	<polygon fill="url(#SVGID_60_)" points="-698.098,782.552 -698.093,782.583 -697.878,782.564 -697.878,782.552 	"/>
	<polygon fill="#00AA97" points="-697.737,782.552 -697.878,782.552 -697.878,782.564 -697.746,782.553 	"/>
	
		<radialGradient id="SVGID_61_" cx="-704.1267" cy="-745.7268" r="2.5084" gradientTransform="matrix(1 0 0 -1 8.52 34.4292)" gradientUnits="userSpaceOnUse">
		<stop  offset="0" style="stop-color:#F7E9C6"/>
		<stop  offset="0.5" style="stop-color:#F2DB9A"/>
		<stop  offset="1" style="stop-color:#E9C44C"/>
	</radialGradient>
	<polygon fill="url(#SVGID_61_)" points="-697.737,782.552 -697.878,782.552 -697.878,782.564 -697.746,782.553 	"/>
	
		<linearGradient id="SVGID_62_" gradientUnits="userSpaceOnUse" x1="-710.4094" y1="-744.3704" x2="-699.4344" y2="-754.4789" gradientTransform="matrix(1 0 0 -1 8.52 34.4292)">
		<stop  offset="0" style="stop-color:#F69353"/>
		<stop  offset="0.5" style="stop-color:#F37521"/>
		<stop  offset="1" style="stop-color:#D4622A"/>
	</linearGradient>
	<polygon fill="url(#SVGID_62_)" points="-697.737,782.552 -697.878,782.552 -697.878,782.564 -697.746,782.553 	"/>
	
		<radialGradient id="SVGID_63_" cx="-706.6453" cy="-753.5305" r="3.9084" gradientTransform="matrix(1 0 0 -1 8.52 34.4292)" gradientUnits="userSpaceOnUse">
		<stop  offset="0" style="stop-color:#F7E9C6"/>
		<stop  offset="0.5" style="stop-color:#F2DB9A"/>
		<stop  offset="1" style="stop-color:#E9C44C"/>
	</radialGradient>
	<polygon fill="url(#SVGID_63_)" points="-697.737,782.552 -697.878,782.552 -697.878,782.564 -697.746,782.553 	"/>
	
		<radialGradient id="SVGID_64_" cx="-709.1638" cy="-745.7268" r="2.5086" gradientTransform="matrix(1 0 0 -1 8.52 34.4292)" gradientUnits="userSpaceOnUse">
		<stop  offset="0" style="stop-color:#F7E9C6"/>
		<stop  offset="0.5" style="stop-color:#F2DB9A"/>
		<stop  offset="1" style="stop-color:#E9C44C"/>
	</radialGradient>
	<path fill="url(#SVGID_64_)" d="M-698.505,782.553c0.098,0.008,0.151,0.013,0.151,0.013l0.196,0.017l0.005-0.03h-0.36
		C-698.511,782.552-698.507,782.553-698.505,782.553z"/>
	
		<linearGradient id="SVGID_65_" gradientUnits="userSpaceOnUse" x1="-710.6477" y1="-744.6292" x2="-699.6727" y2="-754.7377" gradientTransform="matrix(1 0 0 -1 8.52 34.4292)">
		<stop  offset="0" style="stop-color:#F69353"/>
		<stop  offset="0.5" style="stop-color:#F37521"/>
		<stop  offset="1" style="stop-color:#D4622A"/>
	</linearGradient>
	<path fill="url(#SVGID_65_)" d="M-698.505,782.553c0.098,0.008,0.151,0.013,0.151,0.013l0.196,0.017l0.005-0.03h-0.36
		C-698.511,782.552-698.507,782.553-698.505,782.553z"/>
	
		<radialGradient id="SVGID_66_" cx="-706.6453" cy="-753.5305" r="3.9084" gradientTransform="matrix(1 0 0 -1 8.52 34.4292)" gradientUnits="userSpaceOnUse">
		<stop  offset="0" style="stop-color:#F7E9C6"/>
		<stop  offset="0.5" style="stop-color:#F2DB9A"/>
		<stop  offset="1" style="stop-color:#E9C44C"/>
	</radialGradient>
	<path fill="url(#SVGID_66_)" d="M-698.505,782.553c0.098,0.008,0.151,0.013,0.151,0.013l0.196,0.017l0.005-0.03h-0.36
		C-698.511,782.552-698.507,782.553-698.505,782.553z"/>
	
		<linearGradient id="SVGID_67_" gradientUnits="userSpaceOnUse" x1="-715.0466" y1="-749.405" x2="-704.0717" y2="-759.5136" gradientTransform="matrix(1 0 0 -1 8.52 34.4292)">
		<stop  offset="0" style="stop-color:#F69353"/>
		<stop  offset="0.5" style="stop-color:#F37521"/>
		<stop  offset="1" style="stop-color:#D4622A"/>
	</linearGradient>
	<path fill="url(#SVGID_67_)" d="M-702.098,788.826c0.333,1.569,1.552,2.802,3.106,3.17v-3.17H-702.098z"/>
	
		<radialGradient id="SVGID_68_" cx="-706.5535" cy="-753.5295" r="4.1577" gradientTransform="matrix(1 0 0 -1 8.52 34.4292)" gradientUnits="userSpaceOnUse">
		<stop  offset="0" style="stop-color:#F7E9C6"/>
		<stop  offset="0.5" style="stop-color:#F2DB9A"/>
		<stop  offset="1" style="stop-color:#E9C44C"/>
	</radialGradient>
	<path opacity="0.3" fill="url(#SVGID_68_)" enable-background="new    " d="M-702.098,788.826c0.333,1.569,1.552,2.802,3.106,3.17
		v-3.17H-702.098z"/>
	
		<linearGradient id="SVGID_69_" gradientUnits="userSpaceOnUse" x1="-713.3269" y1="-747.5383" x2="-702.3519" y2="-757.6469" gradientTransform="matrix(1 0 0 -1 8.52 34.4292)">
		<stop  offset="0" style="stop-color:#F69353"/>
		<stop  offset="0.5" style="stop-color:#F37521"/>
		<stop  offset="1" style="stop-color:#D4622A"/>
	</linearGradient>
	<path fill="url(#SVGID_69_)" d="M-697.259,792.039c1.644-0.311,2.944-1.583,3.29-3.213h-3.29V792.039z"/>
	
		<radialGradient id="SVGID_70_" cx="-706.5535" cy="-753.5295" r="4.1577" gradientTransform="matrix(1 0 0 -1 8.52 34.4292)" gradientUnits="userSpaceOnUse">
		<stop  offset="0" style="stop-color:#F7E9C6"/>
		<stop  offset="0.5" style="stop-color:#F2DB9A"/>
		<stop  offset="1" style="stop-color:#E9C44C"/>
	</radialGradient>
	<path opacity="0.3" fill="url(#SVGID_70_)" enable-background="new    " d="M-697.259,792.039c1.644-0.311,2.944-1.583,3.29-3.213
		h-3.29V792.039z"/>
	
		<linearGradient id="SVGID_71_" gradientUnits="userSpaceOnUse" x1="-711.4045" y1="-745.4509" x2="-700.4296" y2="-755.5595" gradientTransform="matrix(1 0 0 -1 8.52 34.4292)">
		<stop  offset="0" style="stop-color:#F69353"/>
		<stop  offset="0.5" style="stop-color:#F37521"/>
		<stop  offset="1" style="stop-color:#D4622A"/>
	</linearGradient>
	<path fill="url(#SVGID_71_)" d="M-693.969,787.094c-0.346-1.63-1.646-2.903-3.29-3.215v3.215H-693.969z"/>
	
		<radialGradient id="SVGID_72_" cx="-706.5535" cy="-753.5295" r="4.1577" gradientTransform="matrix(1 0 0 -1 8.52 34.4292)" gradientUnits="userSpaceOnUse">
		<stop  offset="0" style="stop-color:#F7E9C6"/>
		<stop  offset="0.5" style="stop-color:#F2DB9A"/>
		<stop  offset="1" style="stop-color:#E9C44C"/>
	</radialGradient>
	<path opacity="0.3" fill="url(#SVGID_72_)" enable-background="new    " d="M-693.969,787.094c-0.346-1.63-1.646-2.903-3.29-3.215
		v3.215H-693.969z"/>
	
		<linearGradient id="SVGID_73_" gradientUnits="userSpaceOnUse" x1="-713.136" y1="-747.3308" x2="-702.161" y2="-757.4394" gradientTransform="matrix(1 0 0 -1 8.52 34.4292)">
		<stop  offset="0" style="stop-color:#F69353"/>
		<stop  offset="0.5" style="stop-color:#F37521"/>
		<stop  offset="1" style="stop-color:#D4622A"/>
	</linearGradient>
	<path fill="url(#SVGID_73_)" d="M-702.098,787.094h3.106v-3.172C-700.546,784.291-701.765,785.525-702.098,787.094z"/>
	
		<radialGradient id="SVGID_74_" cx="-706.5535" cy="-753.5295" r="4.1577" gradientTransform="matrix(1 0 0 -1 8.52 34.4292)" gradientUnits="userSpaceOnUse">
		<stop  offset="0" style="stop-color:#F7E9C6"/>
		<stop  offset="0.5" style="stop-color:#F2DB9A"/>
		<stop  offset="1" style="stop-color:#E9C44C"/>
	</radialGradient>
	<path opacity="0.3" fill="url(#SVGID_74_)" enable-background="new    " d="M-702.098,787.094h3.106v-3.172
		C-700.546,784.291-701.765,785.525-702.098,787.094z"/>
	
		<linearGradient id="SVGID_75_" gradientUnits="userSpaceOnUse" x1="-712.0154" y1="-746.114" x2="-701.0404" y2="-756.2226" gradientTransform="matrix(1 0 0 -1 8.52 34.4292)">
		<stop  offset="0" style="stop-color:#F69353"/>
		<stop  offset="0.5" style="stop-color:#F37521"/>
		<stop  offset="1" style="stop-color:#D4622A"/>
	</linearGradient>
	<path fill="url(#SVGID_75_)" d="M-697.259,787.094v-3.215c-0.252-0.048-0.51-0.078-0.776-0.078c-0.331,0-0.648,0.049-0.957,0.121
		v3.172H-697.259z"/>
	
		<radialGradient id="SVGID_76_" cx="-706.6453" cy="-753.5305" r="3.9084" gradientTransform="matrix(1 0 0 -1 8.52 34.4292)" gradientUnits="userSpaceOnUse">
		<stop  offset="0" style="stop-color:#F7E9C6"/>
		<stop  offset="0.5" style="stop-color:#F2DB9A"/>
		<stop  offset="1" style="stop-color:#E9C44C"/>
	</radialGradient>
	<path fill="url(#SVGID_76_)" d="M-697.259,787.094v-3.215c-0.252-0.048-0.51-0.078-0.776-0.078c-0.331,0-0.648,0.049-0.957,0.121
		v3.172H-697.259z"/>
	
		<radialGradient id="SVGID_77_" cx="-706.5535" cy="-753.5295" r="4.1577" gradientTransform="matrix(1 0 0 -1 8.52 34.4292)" gradientUnits="userSpaceOnUse">
		<stop  offset="0" style="stop-color:#F7E9C6"/>
		<stop  offset="0.5" style="stop-color:#F2DB9A"/>
		<stop  offset="1" style="stop-color:#E9C44C"/>
	</radialGradient>
	<path opacity="0.3" fill="url(#SVGID_77_)" enable-background="new    " d="M-697.259,787.094v-3.215
		c-0.252-0.048-0.51-0.078-0.776-0.078c-0.331,0-0.648,0.049-0.957,0.121v3.172H-697.259z"/>
	
		<linearGradient id="SVGID_78_" gradientUnits="userSpaceOnUse" x1="-714.469" y1="-748.7781" x2="-703.494" y2="-758.8867" gradientTransform="matrix(1 0 0 -1 8.52 34.4292)">
		<stop  offset="0" style="stop-color:#F69353"/>
		<stop  offset="0.5" style="stop-color:#F37521"/>
		<stop  offset="1" style="stop-color:#D4622A"/>
	</linearGradient>
	<path fill="url(#SVGID_78_)" d="M-698.991,788.826v3.17c0.309,0.072,0.626,0.121,0.957,0.121c0.266,0,0.524-0.03,0.776-0.078
		v-3.213H-698.991z"/>
	
		<radialGradient id="SVGID_79_" cx="-706.6453" cy="-753.5305" r="3.9084" gradientTransform="matrix(1 0 0 -1 8.52 34.4292)" gradientUnits="userSpaceOnUse">
		<stop  offset="0" style="stop-color:#F7E9C6"/>
		<stop  offset="0.5" style="stop-color:#F2DB9A"/>
		<stop  offset="1" style="stop-color:#E9C44C"/>
	</radialGradient>
	<path fill="url(#SVGID_79_)" d="M-698.991,788.826v3.17c0.309,0.072,0.626,0.121,0.957,0.121c0.266,0,0.524-0.03,0.776-0.078
		v-3.213H-698.991z"/>
	
		<radialGradient id="SVGID_80_" cx="-706.5535" cy="-753.5295" r="4.1577" gradientTransform="matrix(1 0 0 -1 8.52 34.4292)" gradientUnits="userSpaceOnUse">
		<stop  offset="0" style="stop-color:#F7E9C6"/>
		<stop  offset="0.5" style="stop-color:#F2DB9A"/>
		<stop  offset="1" style="stop-color:#E9C44C"/>
	</radialGradient>
	<path opacity="0.3" fill="url(#SVGID_80_)" enable-background="new    " d="M-698.991,788.826v3.17
		c0.309,0.072,0.626,0.121,0.957,0.121c0.266,0,0.524-0.03,0.776-0.078v-3.213H-698.991z"/>
	
		<linearGradient id="SVGID_81_" gradientUnits="userSpaceOnUse" x1="-715.4807" y1="-749.8762" x2="-704.5057" y2="-759.9848" gradientTransform="matrix(1 0 0 -1 8.52 34.4292)">
		<stop  offset="0" style="stop-color:#F69353"/>
		<stop  offset="0.5" style="stop-color:#F37521"/>
		<stop  offset="1" style="stop-color:#D4622A"/>
	</linearGradient>
	<path fill="url(#SVGID_81_)" d="M-702.191,787.96c0-0.298,0.034-0.587,0.093-0.866h-1.785v1.732h1.785
		C-702.157,788.547-702.191,788.258-702.191,787.96z"/>
	
		<radialGradient id="SVGID_82_" cx="-706.6458" cy="-753.5305" r="4.1169" gradientTransform="matrix(1 0 0 -1 8.52 34.4292)" gradientUnits="userSpaceOnUse">
		<stop  offset="0" style="stop-color:#F7E9C6"/>
		<stop  offset="0.5" style="stop-color:#F2DB9A"/>
		<stop  offset="1" style="stop-color:#E9C44C"/>
	</radialGradient>
	<path fill="url(#SVGID_82_)" d="M-702.191,787.96c0-0.298,0.034-0.587,0.093-0.866h-1.785v1.732h1.785
		C-702.157,788.547-702.191,788.258-702.191,787.96z"/>
	
		<linearGradient id="SVGID_83_" gradientUnits="userSpaceOnUse" x1="-710.9724" y1="-744.9817" x2="-699.9974" y2="-755.0903" gradientTransform="matrix(1 0 0 -1 8.52 34.4292)">
		<stop  offset="0" style="stop-color:#F69353"/>
		<stop  offset="0.5" style="stop-color:#F37521"/>
		<stop  offset="1" style="stop-color:#D4622A"/>
	</linearGradient>
	<path fill="url(#SVGID_83_)" d="M-693.876,787.96c0,0.298-0.034,0.587-0.093,0.866h1.601v-1.732h-1.601
		C-693.91,787.373-693.876,787.662-693.876,787.96z"/>
	
		<radialGradient id="SVGID_84_" cx="-706.6458" cy="-753.5305" r="4.1169" gradientTransform="matrix(1 0 0 -1 8.52 34.4292)" gradientUnits="userSpaceOnUse">
		<stop  offset="0" style="stop-color:#F7E9C6"/>
		<stop  offset="0.5" style="stop-color:#F2DB9A"/>
		<stop  offset="1" style="stop-color:#E9C44C"/>
	</radialGradient>
	<path fill="url(#SVGID_84_)" d="M-693.876,787.96c0,0.298-0.034,0.587-0.093,0.866h1.601v-1.732h-1.601
		C-693.91,787.373-693.876,787.662-693.876,787.96z"/>
	
		<linearGradient id="SVGID_85_" gradientUnits="userSpaceOnUse" x1="-714.3577" y1="-748.6575" x2="-703.3827" y2="-758.7661" gradientTransform="matrix(1 0 0 -1 8.52 34.4292)">
		<stop  offset="0" style="stop-color:#F69353"/>
		<stop  offset="0.5" style="stop-color:#F37521"/>
		<stop  offset="1" style="stop-color:#D4622A"/>
	</linearGradient>
	<path fill="url(#SVGID_85_)" d="M-698.991,787.094h-3.106c-0.06,0.279-0.093,0.568-0.093,0.866s0.034,0.587,0.093,0.866h3.106
		V787.094z"/>
	
		<radialGradient id="SVGID_86_" cx="-706.5535" cy="-753.5305" r="4.1598" gradientTransform="matrix(1 0 0 -1 8.52 34.4292)" gradientUnits="userSpaceOnUse">
		<stop  offset="0" style="stop-color:#F7E9C6"/>
		<stop  offset="0.5" style="stop-color:#F2DB9A"/>
		<stop  offset="1" style="stop-color:#E9C44C"/>
	</radialGradient>
	<path opacity="0.3" fill="url(#SVGID_86_)" enable-background="new    " d="M-698.991,787.094h-3.106
		c-0.06,0.279-0.093,0.568-0.093,0.866s0.034,0.587,0.093,0.866h3.106V787.094z"/>
	
		<radialGradient id="SVGID_87_" cx="-706.6458" cy="-753.5305" r="4.1169" gradientTransform="matrix(1 0 0 -1 8.52 34.4292)" gradientUnits="userSpaceOnUse">
		<stop  offset="0" style="stop-color:#F7E9C6"/>
		<stop  offset="0.5" style="stop-color:#F2DB9A"/>
		<stop  offset="1" style="stop-color:#E9C44C"/>
	</radialGradient>
	<path fill="url(#SVGID_87_)" d="M-698.991,787.094h-3.106c-0.06,0.279-0.093,0.568-0.093,0.866s0.034,0.587,0.093,0.866h3.106
		V787.094z"/>
	
		<linearGradient id="SVGID_88_" gradientUnits="userSpaceOnUse" x1="-712.0945" y1="-746.2" x2="-701.1195" y2="-756.3085" gradientTransform="matrix(1 0 0 -1 8.52 34.4292)">
		<stop  offset="0" style="stop-color:#F69353"/>
		<stop  offset="0.5" style="stop-color:#F37521"/>
		<stop  offset="1" style="stop-color:#D4622A"/>
	</linearGradient>
	<path fill="url(#SVGID_88_)" d="M-697.259,788.826h3.29c0.06-0.279,0.093-0.568,0.093-0.866s-0.034-0.587-0.093-0.866h-3.29
		V788.826z"/>
	
		<radialGradient id="SVGID_89_" cx="-706.5535" cy="-753.5305" r="4.1579" gradientTransform="matrix(1 0 0 -1 8.52 34.4292)" gradientUnits="userSpaceOnUse">
		<stop  offset="0" style="stop-color:#F7E9C6"/>
		<stop  offset="0.5" style="stop-color:#F2DB9A"/>
		<stop  offset="1" style="stop-color:#E9C44C"/>
	</radialGradient>
	<path opacity="0.3" fill="url(#SVGID_89_)" enable-background="new    " d="M-697.259,788.826h3.29
		c0.06-0.279,0.093-0.568,0.093-0.866s-0.034-0.587-0.093-0.866h-3.29V788.826z"/>
	
		<radialGradient id="SVGID_90_" cx="-706.6458" cy="-753.5305" r="4.1169" gradientTransform="matrix(1 0 0 -1 8.52 34.4292)" gradientUnits="userSpaceOnUse">
		<stop  offset="0" style="stop-color:#F7E9C6"/>
		<stop  offset="0.5" style="stop-color:#F2DB9A"/>
		<stop  offset="1" style="stop-color:#E9C44C"/>
	</radialGradient>
	<path fill="url(#SVGID_90_)" d="M-697.259,788.826h3.29c0.06-0.279,0.093-0.568,0.093-0.866s-0.034-0.587-0.093-0.866h-3.29
		V788.826z"/>
	
		<linearGradient id="SVGID_91_" gradientUnits="userSpaceOnUse" x1="-713.2473" y1="-747.4514" x2="-702.2723" y2="-757.56" gradientTransform="matrix(1 0 0 -1 8.52 34.4292)">
		<stop  offset="0" style="stop-color:#F69353"/>
		<stop  offset="0.5" style="stop-color:#F37521"/>
		<stop  offset="1" style="stop-color:#D4622A"/>
	</linearGradient>
	<rect x="-698.991" y="787.094" fill="url(#SVGID_91_)" width="1.732" height="1.732"/>
	
		<radialGradient id="SVGID_92_" cx="-706.6453" cy="-753.5305" r="3.9084" gradientTransform="matrix(1 0 0 -1 8.52 34.4292)" gradientUnits="userSpaceOnUse">
		<stop  offset="0" style="stop-color:#F7E9C6"/>
		<stop  offset="0.5" style="stop-color:#F2DB9A"/>
		<stop  offset="1" style="stop-color:#E9C44C"/>
	</radialGradient>
	<rect x="-698.991" y="787.094" fill="url(#SVGID_92_)" width="1.732" height="1.732"/>
	
		<radialGradient id="SVGID_93_" cx="-706.5535" cy="-753.5305" r="4.1603" gradientTransform="matrix(1 0 0 -1 8.52 34.4292)" gradientUnits="userSpaceOnUse">
		<stop  offset="0" style="stop-color:#F7E9C6"/>
		<stop  offset="0.5" style="stop-color:#F2DB9A"/>
		<stop  offset="1" style="stop-color:#E9C44C"/>
	</radialGradient>
	<rect x="-698.991" y="787.094" opacity="0.3" fill="url(#SVGID_93_)" enable-background="new    " width="1.732" height="1.732"/>
	
		<radialGradient id="SVGID_94_" cx="-706.6453" cy="-753.5305" r="4.1157" gradientTransform="matrix(1 0 0 -1 8.52 34.4292)" gradientUnits="userSpaceOnUse">
		<stop  offset="0" style="stop-color:#F7E9C6"/>
		<stop  offset="0.5" style="stop-color:#F2DB9A"/>
		<stop  offset="1" style="stop-color:#E9C44C"/>
	</radialGradient>
	<rect x="-698.991" y="787.094" fill="url(#SVGID_94_)" width="1.732" height="1.732"/>
	<g>
		<g>
			<g>
				<path id="SVGID_56_" fill="#4FA8B1" d="M-873.253,789.596l9.368,0.107l-0.07-9.426
					C-863.955,780.278-872.967,780.642-873.253,789.596"/>
			</g>
			<g>
				<path id="SVGID_55_" fill="#99CBD0" d="M-873.253,801.714l9.368,0.106l-0.069-9.428
					C-863.955,792.392-872.965,792.76-873.253,801.714"/>
			</g>
			<g>
				<path id="SVGID_54_" fill="#B2D7DB" d="M-873.249,814.073l9.368,0.108l-0.07-9.428
					C-863.951,804.755-872.962,805.119-873.249,814.073"/>
			</g>
			<g>
				<path id="SVGID_53_" fill="#B2D7DB" d="M-860.762,801.726l9.366,0.106l-0.068-9.426
					C-851.465,792.408-860.477,792.774-860.762,801.726"/>
			</g>
			<g>
				<path id="SVGID_52_" fill="#B2D7DB" d="M-848.277,789.228l9.367,0.111l-0.07-9.429
					C-838.98,779.912-847.991,780.276-848.277,789.228"/>
			</g>
			<g>
				<path id="SVGID_51_" fill="#E2EFF0" d="M-848.416,801.724l9.367,0.107l-0.07-9.425
					C-839.118,792.408-848.129,792.774-848.416,801.724"/>
			</g>
			<g>
				<path id="SVGID_50_" fill="#FDFEFF" d="M-848.261,814.177l9.366,0.084l-0.093-9.428
					C-838.988,804.834-848,805.223-848.261,814.177"/>
			</g>
		</g>
		<path fill="#FFFFFF" d="M-783.229,800.795v2.789h-6.252v-6.325h-0.177c-0.434,0.063-1.486,0.28-2.362,0.992
			c-0.839,0.68-1.103,1.838-1.185,2.396v13.155h3.724v-7.018h6.252v7.018h3.724v-16.526c-0.234,0.021-1.499,0.177-2.523,1.01
			C-782.93,799.015-783.169,800.298-783.229,800.795z"/>
		<path fill="#FFFFFF" d="M-764.018,804.587c-0.535-1.337-1.067-2.606-1.594-3.808c-0.528-1.203-1.064-2.376-1.606-3.521h-1.257
			c-0.409,0.037-1.603,0.22-2.416,1.094c-0.896,0.964-1.475,2.455-1.475,2.455s-0.003-0.007-0.006-0.01
			c-0.517,1.198-1.041,2.46-1.573,3.79c-0.534,1.338-1.082,2.761-1.641,4.272c-0.559,1.514-1.149,3.159-1.771,4.943h3.865
			c0.182-0.57,0.377-1.161,0.588-1.768c0.209-0.605,0.419-1.21,0.627-1.813h6.461c0.209,0.601,0.421,1.203,0.631,1.81
			c0.212,0.604,0.41,1.195,0.595,1.771h3.988c-0.624-1.784-1.216-3.43-1.774-4.943
			C-762.934,807.348-763.482,805.924-764.018,804.587z M-771.428,807.26c0.26-0.715,0.517-1.398,0.769-2.05
			c0.253-0.651,0.481-1.247,0.686-1.788c0.205-0.543,0.387-1.021,0.548-1.435c0.159-0.411,0.281-0.74,0.364-0.981
			c0.1,0.234,0.229,0.559,0.39,0.973c0.162,0.411,0.348,0.89,0.562,1.432c0.213,0.543,0.439,1.14,0.676,1.794
			c0.237,0.653,0.483,1.338,0.735,2.056H-771.428L-771.428,807.26z"/>
		<path fill="#FFFFFF" d="M-751.933,797.259h-0.11c-0.363,0.045-1.506,0.238-2.447,1.005c-0.786,0.638-1.067,1.697-1.167,2.284
			v13.254h11.051v-3.199h-7.329v-13.344H-751.933L-751.933,797.259z"/>
		<path fill="#FFFFFF" d="M-729.876,799.073c-0.748-0.73-1.624-1.282-2.625-1.647c-1.002-0.366-2.069-0.548-3.198-0.548
			c-1.097,0-2.144,0.185-3.138,0.548c-0.995,0.368-1.871,0.917-2.626,1.647c-0.756,0.731-1.356,1.634-1.802,2.709
			c-0.446,1.074-0.669,2.319-0.669,3.735c0,1.417,0.216,2.661,0.646,3.735c0.429,1.074,1.018,1.975,1.765,2.697
			c0.748,0.726,1.624,1.271,2.626,1.638c1.001,0.365,2.068,0.547,3.198,0.547c1.162,0,2.248-0.184,3.258-0.547
			c1.01-0.367,1.883-0.912,2.614-1.638c0.732-0.723,1.309-1.623,1.73-2.697c0.421-1.074,0.632-2.318,0.632-3.735
			c0-1.416-0.215-2.661-0.645-3.735C-728.54,800.707-729.128,799.804-729.876,799.073z M-731.607,807.714
			c-0.198,0.652-0.486,1.213-0.858,1.683c-0.374,0.469-0.835,0.831-1.385,1.086c-0.548,0.254-1.166,0.382-1.849,0.382
			c-0.701,0-1.322-0.128-1.862-0.382c-0.541-0.255-0.999-0.617-1.373-1.086c-0.375-0.468-0.661-1.029-0.86-1.683
			c-0.2-0.653-0.299-1.386-0.299-2.198c0-0.795,0.1-1.524,0.299-2.182c0.199-0.661,0.485-1.225,0.86-1.694
			c0.373-0.47,0.832-0.836,1.373-1.099c0.54-0.264,1.161-0.395,1.862-0.395c0.685,0,1.301,0.13,1.849,0.382
			c0.548,0.255,1.011,0.617,1.385,1.087c0.373,0.47,0.661,1.034,0.858,1.694c0.2,0.661,0.299,1.396,0.299,2.206
			C-731.308,806.328-731.408,807.06-731.607,807.714z"/>
		<path fill="#FFFFFF" d="M-711.169,797.286c0,0-1.433,0.093-2.566,1.015c-0.656,0.531-0.96,1.356-1.102,1.96v6.761
			c-0.572-0.859-1.185-1.754-1.837-2.685c-0.652-0.932-1.311-1.83-1.97-2.697c-0.661-0.867-1.31-1.684-1.944-2.448
			c-0.637-0.762-1.218-1.407-1.742-1.933h-3.033v16.543h3.678v-10.837c1.399,1.639,2.721,3.381,3.962,5.228
			c1.24,1.848,2.395,3.716,3.461,5.609h3.127v-16.543h-0.059L-711.169,797.286z"/>
		<path fill="#FFFFFF" d="M-700.25,800.123c0.15,0,0.298,0.008,0.444,0.015l-0.006-0.013c0,0,0.022,0.006,0.059,0.014
			c0.364,0.021,0.717,0.068,1.055,0.133c0.479,0.013,1.063-0.032,1.645-0.238c0.799-0.28,1.295-0.852,1.574-1.286l0.219-0.607
			c-0.129-0.08-0.339-0.188-0.634-0.333c-0.294-0.144-0.667-0.283-1.121-0.419c-0.453-0.134-0.995-0.252-1.624-0.358
			c-0.629-0.102-1.334-0.154-2.113-0.154c-1.145,0-2.223,0.191-3.234,0.573c-1.01,0.383-1.889,0.942-2.638,1.683
			c-0.748,0.741-1.336,1.645-1.766,2.71c-0.43,1.066-0.645,2.292-0.645,3.675c0,1.371,0.194,2.587,0.585,3.654
			c0.389,1.065,0.942,1.964,1.659,2.697c0.716,0.731,1.579,1.289,2.59,1.67c1.01,0.384,2.136,0.573,3.378,0.573
			c1.446,0,2.665-0.1,3.652-0.299c0.986-0.198,1.702-0.386,2.148-0.56v-8.188h-3.724v5.752c-0.223,0.048-0.48,0.079-0.775,0.096
			c-0.296,0.015-0.649,0.024-1.063,0.024c-0.764,0-1.432-0.133-2.004-0.394c-0.573-0.264-1.052-0.635-1.433-1.111
			c-0.382-0.477-0.668-1.046-0.859-1.706c-0.191-0.658-0.286-1.396-0.286-2.207c0-1.671,0.386-2.986,1.156-3.949
			C-703.238,800.604-701.985,800.123-700.25,800.123z"/>
		<path fill="#FFFFFF" d="M-825.191,781.044c-0.569-0.486-1.259-0.853-2.05-1.092c-0.78-0.236-1.646-0.357-2.575-0.357
			c-0.452,0-0.957,0.021-1.5,0.058c-0.551,0.037-1.06,0.113-1.509,0.224l-0.209,0.05v11.182l0.209,0.051
			c0.45,0.108,0.958,0.185,1.509,0.223c0.542,0.036,1.047,0.055,1.5,0.055c0.929,0,1.795-0.117,2.575-0.354
			c0.791-0.241,1.48-0.607,2.051-1.093c0.574-0.491,1.023-1.118,1.338-1.863c0.311-0.74,0.468-1.619,0.468-2.61
			c0-0.989-0.157-1.869-0.469-2.611C-824.167,782.161-824.616,781.534-825.191,781.044z M-825.576,785.515
			c0,1.275-0.341,2.276-1.012,2.972c-0.669,0.692-1.711,1.046-3.1,1.046c-0.433,0-0.767-0.006-1.004-0.016
			c-0.093-0.004-0.174-0.008-0.244-0.012v-7.977c0.07-0.003,0.151-0.008,0.244-0.011c0.237-0.011,0.571-0.016,1.004-0.016
			c1.388,0,2.43,0.353,3.1,1.045C-825.917,783.241-825.576,784.24-825.576,785.515z"/>
		<path fill="#FFFFFF" d="M-816.038,789.554c-0.009,0.001-0.019,0.003-0.027,0.003c-0.121,0.017-0.255,0.031-0.402,0.049
			c-0.146,0.016-0.302,0.03-0.468,0.038c-0.166,0.012-0.325,0.016-0.479,0.016c-0.672,0-1.127-0.178-1.396-0.544
			c-0.284-0.388-0.428-1.066-0.428-2.017v-4.624h-2.034v4.945c0,0.588,0.062,1.128,0.185,1.609c0.125,0.5,0.336,0.941,0.625,1.31
			c0.294,0.378,0.687,0.67,1.165,0.876c0.469,0.2,1.048,0.302,1.722,0.302c0.749,0,1.418-0.051,1.991-0.149
			c0.564-0.098,1.026-0.188,1.372-0.276l0.206-0.05v-8.566h-2.033L-816.038,789.554L-816.038,789.554z"/>
		<path fill="#FFFFFF" d="M-803.456,789.31c-0.106,0.044-0.292,0.115-0.561,0.214c-0.24,0.091-0.572,0.135-0.986,0.135
			c-0.225,0-0.423-0.028-0.585-0.083c-0.144-0.049-0.261-0.127-0.357-0.243c-0.1-0.122-0.178-0.3-0.232-0.527
			c-0.059-0.251-0.089-0.576-0.089-0.97v-3.566h3.152v-1.794h-3.152v-2.628l-2.034,0.35v7.654c0,0.571,0.048,1.083,0.143,1.522
			c0.098,0.458,0.274,0.854,0.523,1.175c0.255,0.325,0.592,0.572,1.004,0.733c0.398,0.156,0.903,0.235,1.5,0.235
			c0.504,0,0.962-0.061,1.359-0.181c0.391-0.117,0.662-0.215,0.828-0.296l0.192-0.096l-0.409-1.753L-803.456,789.31z"/>
		<path fill="#FFFFFF" d="M-794.184,783.469c-0.289-0.371-0.678-0.664-1.156-0.867c-0.47-0.202-1.061-0.304-1.755-0.304
			c-0.323,0-0.655,0.031-0.986,0.093c-0.194,0.036-0.383,0.082-0.565,0.136v-4.199l-2.034,0.349v12.663h2.034v-6.983
			c0.018-0.006,0.039-0.009,0.059-0.016c0.117-0.031,0.248-0.058,0.394-0.082c0.15-0.027,0.31-0.051,0.475-0.07
			c0.543-0.069,1.026-0.021,1.358,0.104c0.218,0.083,0.385,0.21,0.515,0.393c0.135,0.188,0.237,0.448,0.298,0.771
			c0.065,0.346,0.099,0.769,0.099,1.261v4.626h2.034v-4.946c0-0.582-0.056-1.125-0.167-1.612
			C-793.696,784.277-793.899,783.834-794.184,783.469z"/>
		<path fill="#FFFFFF" d="M-786.862,789.554c-0.009,0.001-0.018,0.003-0.027,0.003c-0.122,0.017-0.255,0.031-0.401,0.049
			c-0.146,0.016-0.302,0.03-0.469,0.038c-0.165,0.012-0.324,0.016-0.479,0.016c-0.671,0-1.128-0.178-1.396-0.544
			c-0.283-0.388-0.427-1.066-0.427-2.017v-4.624h-2.034v4.945c0,0.588,0.063,1.128,0.185,1.609c0.127,0.5,0.337,0.941,0.625,1.31
			c0.294,0.378,0.687,0.67,1.165,0.876c0.469,0.2,1.048,0.302,1.723,0.302c0.748,0,1.418-0.051,1.99-0.149
			c0.563-0.098,1.025-0.188,1.372-0.276l0.208-0.05v-8.566h-2.034V789.554L-786.862,789.554z"/>
		<path fill="#FFFFFF" d="M-776.867,782.688c-0.264,1.149-0.548,2.287-0.845,3.38c-0.24,0.877-0.516,1.774-0.826,2.673
			c-0.155-0.352-0.306-0.708-0.451-1.069c-0.232-0.582-0.451-1.169-0.65-1.75c-0.201-0.578-0.386-1.15-0.549-1.7
			c-0.162-0.545-0.304-1.062-0.419-1.537l-0.051-0.21h-2.167l0.089,0.341c0.386,1.48,0.877,2.958,1.46,4.394
			c0.563,1.392,1.178,2.728,1.829,3.978c-0.234,0.481-0.488,0.834-0.762,1.05c-0.28,0.222-0.686,0.335-1.207,0.335
			c-0.157,0-0.32-0.023-0.484-0.065c-0.17-0.044-0.309-0.09-0.411-0.136l-0.305-0.138l-0.394,1.735l0.19,0.097
			c0.051,0.023,0.135,0.057,0.257,0.096c0.108,0.032,0.228,0.065,0.36,0.093c0.129,0.028,0.264,0.05,0.4,0.067
			c0.139,0.019,0.273,0.028,0.401,0.028c0.463,0,0.886-0.059,1.257-0.172c0.377-0.115,0.723-0.299,1.027-0.546
			c0.297-0.239,0.571-0.547,0.816-0.919c0.236-0.356,0.468-0.785,0.687-1.282c0.544-1.256,1.058-2.628,1.529-4.079
			c0.469-1.444,0.902-2.973,1.285-4.539l0.083-0.337h-2.102L-776.867,782.688z"/>
		<polygon fill="#FFFFFF" points="-770.024,781.306 -769.353,782.539 -767.653,782.539 -769.357,779.706 -770.692,779.706 
			-772.356,782.539 -770.693,782.539 		"/>
		<polygon fill="#FFFFFF" points="-772.335,781.793 -773.309,779.753 -774.824,779.753 -773.402,781.793 		"/>
		<path fill="#FFFFFF" d="M-769.991,782.873c-2.3,0-3.905,1.832-3.905,4.451c0,2.539,1.602,4.177,4.082,4.177
			c1.3,0,2.18-0.272,2.688-0.505l0.205-0.094l-0.367-1.539l-0.297,0.125c-0.463,0.197-1.029,0.379-2.039,0.379
			c-0.672,0-2.203-0.217-2.369-2.143h5.399l0.034-0.308c0.017-0.144,0.043-0.359,0.043-0.622
			C-766.518,784.844-767.593,782.873-769.991,782.873z M-768.433,786.17h-3.507c0.17-0.754,0.693-1.741,1.836-1.741
			c0.481,0,0.867,0.144,1.148,0.428C-768.57,785.251-768.461,785.815-768.433,786.17z"/>
		<path fill="#FFFFFF" d="M-758.563,784.783c-0.116-0.507-0.319-0.949-0.604-1.314c-0.288-0.371-0.677-0.664-1.156-0.867
			c-0.469-0.202-1.061-0.304-1.754-0.304c-0.747,0-1.419,0.05-1.998,0.148c-0.571,0.098-1.035,0.188-1.381,0.276l-0.208,0.052v8.565
			h2.034v-7.069c0.012-0.003,0.026-0.004,0.038-0.007c0.117-0.021,0.25-0.038,0.397-0.054c0.151-0.014,0.311-0.026,0.478-0.038
			c0.548-0.032,1.039-0.009,1.373,0.12c0.218,0.083,0.387,0.209,0.516,0.39c0.135,0.191,0.235,0.449,0.297,0.772
			c0.065,0.346,0.1,0.77,0.1,1.261v4.625h2.034v-4.944C-758.396,785.815-758.454,785.273-758.563,784.783z"/>
		<g>
			<g enable-background="new    ">
				<path fill="#FFFFFF" d="M-824.226,803.313c-0.51,1.912-1.109,3.744-1.797,5.499c-0.688,1.756-1.353,3.325-1.994,4.715h-1.65
					c-0.641-1.39-1.306-2.959-1.994-4.715c-0.687-1.755-1.287-3.587-1.797-5.499h1.964c0.157,0.642,0.344,1.324,0.561,2.052
					c0.215,0.728,0.445,1.446,0.687,2.161c0.242,0.715,0.488,1.405,0.737,2.073c0.248,0.667,0.484,1.264,0.707,1.787
					c0.223-0.524,0.458-1.12,0.707-1.787c0.249-0.668,0.494-1.358,0.737-2.073c0.242-0.713,0.472-1.434,0.688-2.161
					c0.216-0.728,0.402-1.41,0.56-2.052H-824.226z"/>
			</g>
			<g enable-background="new    ">
				<path fill="#FFFFFF" d="M-827.863,813.766h-1.956l-0.065-0.14c-0.641-1.387-1.313-2.977-2-4.727
					c-0.688-1.76-1.296-3.617-1.805-5.525l-0.08-0.3h2.462l0.045,0.182c0.154,0.628,0.342,1.315,0.558,2.042
					c0.21,0.711,0.441,1.434,0.684,2.151c0.235,0.694,0.482,1.387,0.735,2.064c0.167,0.45,0.328,0.867,0.482,1.248
					c0.154-0.381,0.316-0.799,0.483-1.248c0.248-0.664,0.493-1.354,0.735-2.064c0.242-0.718,0.472-1.442,0.685-2.151
					c0.215-0.727,0.402-1.414,0.557-2.042l0.044-0.182h2.383l-0.08,0.3c-0.51,1.911-1.118,3.77-1.805,5.525
					c-0.683,1.743-1.355,3.334-2,4.727L-827.863,813.766z M-829.513,813.287h1.344c0.621-1.351,1.267-2.885,1.924-4.562
					c0.645-1.646,1.218-3.385,1.707-5.174h-1.386c-0.146,0.586-0.321,1.218-0.518,1.883c-0.212,0.715-0.445,1.445-0.689,2.17
					c-0.245,0.716-0.491,1.407-0.74,2.078c-0.251,0.673-0.491,1.278-0.711,1.797l-0.219,0.518l-0.22-0.517
					c-0.221-0.519-0.461-1.123-0.711-1.798c-0.254-0.683-0.503-1.382-0.739-2.078c-0.246-0.725-0.478-1.455-0.69-2.17
					c-0.197-0.665-0.371-1.297-0.518-1.883h-1.465c0.488,1.785,1.062,3.525,1.708,5.174
					C-830.779,810.409-830.132,811.942-829.513,813.287z"/>
			</g>
			<g enable-background="new    ">
				<path fill="#FFFFFF" d="M-820.552,801.35c0.02,0.589-0.413,1.061-1.101,1.061c-0.608,0-1.041-0.472-1.041-1.061
					c0-0.608,0.452-1.082,1.08-1.082C-820.966,800.268-820.552,800.742-820.552,801.35z M-820.651,816.1
					c0,0.549-0.393,1.021-0.982,1.021c-0.569,0-0.982-0.471-0.982-1.021s0.433-1.002,1.002-1.002
					C-821.063,815.098-820.651,815.551-820.651,816.1z M-822.478,813.527v-9.506h1.728v9.506H-822.478z"/>
			</g>
			<g enable-background="new    ">
				<path fill="#FFFFFF" d="M-821.633,817.359c-0.685,0-1.221-0.553-1.221-1.259c0-0.696,0.545-1.241,1.241-1.241
					c0.674,0,1.202,0.545,1.202,1.241C-820.411,816.818-820.937,817.359-821.633,817.359z M-821.614,815.336
					c-0.428,0-0.762,0.336-0.762,0.765c0,0.438,0.326,0.782,0.743,0.782c0.483,0,0.743-0.403,0.743-0.782
					C-820.89,815.672-821.208,815.336-821.614,815.336z M-820.51,813.766h-2.207v-9.983h2.207V813.766z M-822.239,813.287h1.251
					v-9.026h-1.251V813.287z M-821.653,802.65c-0.729,0-1.279-0.559-1.279-1.3c0-0.752,0.566-1.319,1.319-1.319
					c0.753,0,1.3,0.555,1.3,1.319c0.011,0.341-0.11,0.667-0.341,0.906C-820.899,802.51-821.254,802.65-821.653,802.65z
					 M-821.614,800.509c-0.487,0-0.841,0.354-0.841,0.842c0,0.477,0.337,0.821,0.801,0.821c0.271,0,0.499-0.086,0.656-0.248
					c0.141-0.146,0.213-0.347,0.206-0.566C-820.792,800.846-821.122,800.509-821.614,800.509z"/>
			</g>
			<g enable-background="new    ">
				<path fill="#FFFFFF" d="M-817.743,803.607c0.418-0.105,0.975-0.217,1.669-0.334c0.694-0.118,1.493-0.178,2.396-0.178
					c0.812,0,1.486,0.116,2.024,0.346c0.536,0.229,0.966,0.549,1.287,0.962s0.545,0.906,0.678,1.483
					c0.129,0.577,0.196,1.211,0.196,1.905v5.736h-1.827v-5.345c0-0.627-0.043-1.164-0.128-1.61c-0.086-0.445-0.226-0.807-0.423-1.08
					c-0.196-0.274-0.458-0.474-0.785-0.599c-0.328-0.125-0.735-0.187-1.218-0.187c-0.197,0-0.4,0.006-0.609,0.019
					s-0.409,0.03-0.599,0.051c-0.19,0.018-0.36,0.041-0.51,0.068c-0.151,0.025-0.26,0.046-0.325,0.059v8.623h-1.827V803.607z"/>
				<path fill="#FFFFFF" d="M-806.468,813.527v-14.93l1.826-0.314v5.226c0.341-0.131,0.704-0.232,1.09-0.306
					c0.386-0.07,0.769-0.107,1.149-0.107c0.812,0,1.486,0.115,2.023,0.345c0.538,0.229,0.967,0.548,1.288,0.963
					c0.32,0.412,0.546,0.905,0.677,1.482c0.13,0.576,0.197,1.212,0.197,1.906v5.735h-1.828v-5.344c0-0.627-0.042-1.166-0.127-1.61
					c-0.085-0.445-0.226-0.807-0.422-1.08c-0.197-0.274-0.459-0.476-0.785-0.601c-0.328-0.124-0.734-0.186-1.218-0.186
					c-0.196,0-0.399,0.013-0.609,0.038c-0.209,0.027-0.409,0.056-0.599,0.089c-0.189,0.032-0.36,0.07-0.511,0.109
					c-0.15,0.038-0.258,0.072-0.324,0.098v8.486H-806.468z"/>
			</g>
			<g enable-background="new    ">
				<path fill="#FFFFFF" d="M-809.254,813.766h-2.306v-5.583c0-0.61-0.042-1.138-0.123-1.566c-0.079-0.409-0.208-0.741-0.382-0.985
					c-0.169-0.237-0.391-0.405-0.676-0.515c-0.423-0.161-1.038-0.193-1.727-0.151c-0.207,0.012-0.403,0.028-0.59,0.047
					c-0.183,0.021-0.348,0.042-0.494,0.067l-0.126,0.022v8.664h-2.305v-10.345l0.181-0.047c0.414-0.103,0.965-0.214,1.688-0.338
					c0.704-0.119,1.524-0.179,2.437-0.179c0.84,0,1.553,0.122,2.118,0.362c0.572,0.245,1.038,0.593,1.381,1.036
					c0.341,0.438,0.584,0.97,0.723,1.578c0.134,0.594,0.203,1.252,0.203,1.957V813.766z M-811.082,813.289h1.349v-5.497
					c0-0.67-0.063-1.293-0.19-1.852c-0.123-0.539-0.335-1.007-0.633-1.391c-0.294-0.378-0.694-0.677-1.192-0.89
					c-0.505-0.216-1.154-0.324-1.929-0.324c-0.885,0-1.679,0.058-2.356,0.173c-0.608,0.104-1.092,0.198-1.47,0.287v9.491h1.348
					v-8.582l0.521-0.096c0.156-0.027,0.332-0.051,0.528-0.07c0.193-0.021,0.397-0.038,0.609-0.05
					c0.757-0.049,1.437-0.004,1.926,0.182c0.372,0.142,0.673,0.371,0.896,0.683c0.215,0.302,0.37,0.695,0.462,1.174
					c0.087,0.459,0.132,1.017,0.132,1.656V813.289z"/>
				<path fill="#FFFFFF" d="M-797.98,813.766h-2.305v-5.583c0-0.611-0.042-1.138-0.123-1.566c-0.08-0.41-0.208-0.741-0.383-0.985
					c-0.17-0.237-0.392-0.406-0.676-0.515c-0.421-0.161-1.049-0.219-1.712-0.134c-0.205,0.025-0.401,0.055-0.587,0.087
					c-0.184,0.03-0.348,0.066-0.492,0.104c-0.054,0.014-0.103,0.027-0.145,0.04v8.553h-2.305v-15.37l2.305-0.396v5.172
					c0.258-0.083,0.528-0.15,0.807-0.203c0.407-0.074,0.808-0.112,1.193-0.112c0.84,0,1.552,0.122,2.117,0.362
					c0.573,0.245,1.039,0.594,1.382,1.036c0.341,0.438,0.583,0.969,0.722,1.578c0.134,0.597,0.202,1.257,0.202,1.959V813.766z
					 M-799.806,813.287h1.349v-5.495c0-0.668-0.064-1.292-0.19-1.854c-0.123-0.538-0.336-1.007-0.633-1.39
					c-0.294-0.378-0.694-0.676-1.192-0.89c-0.505-0.215-1.154-0.323-1.929-0.323c-0.356,0-0.729,0.034-1.106,0.104
					c-0.37,0.068-0.722,0.167-1.047,0.292l-0.325,0.125v-5.291l-1.349,0.233v14.487h1.349v-8.408l0.151-0.06
					c0.07-0.028,0.188-0.065,0.353-0.108c0.156-0.04,0.333-0.079,0.531-0.111c0.192-0.035,0.396-0.065,0.609-0.091
					c0.739-0.093,1.446-0.028,1.941,0.162c0.37,0.14,0.671,0.371,0.895,0.682c0.215,0.302,0.371,0.696,0.462,1.175
					c0.087,0.459,0.132,1.015,0.132,1.656V813.287z"/>
			</g>
		</g>
		<circle fill="#FFFFFF" cx="-769.273" cy="815.687" r="1.159"/>
	</g>
</g>
</svg>
